<?xml version="1.0" encoding="utf-8"?>
<!-- Generator: Adobe Illustrator 27.5.0, SVG Export Plug-In . SVG Version: 6.00 Build 0)  -->
<svg version="1.1" xmlns="http://www.w3.org/2000/svg" xmlns:xlink="http://www.w3.org/1999/xlink" x="0px" y="0px"
	 viewBox="0 0 500 500" style="enable-background:new 0 0 500 500;" xml:space="preserve">
<g id="Background_Simple">
	<g>
		<path style="fill:#92E3A9;" d="M208.971,42.05C145.956,53.411,83.158,97.29,45.262,149.378
			C12.634,194.226,2.29,248.18,8.51,297.124c7.217,56.786,35.88,109.701,81.856,142.49c12.096,8.627,23.655,17.182,37.663,23.395
			c57.427,25.471,112.984-28.508,145.832-28.922c27.635-0.348,40.561,28.379,65.932,33.809
			c68.46,14.652,146.89-80.748,148.175-151.455C489.465,234.108,365.049,13.912,208.971,42.05z"/>
		<path style="opacity:0.8;fill:#FFFFFF;" d="M208.971,42.05C145.956,53.411,83.158,97.29,45.262,149.378
			C12.634,194.226,2.29,248.18,8.51,297.124c7.217,56.786,35.88,109.701,81.856,142.49c12.096,8.627,23.655,17.182,37.663,23.395
			c57.427,25.471,112.984-28.508,145.832-28.922c27.635-0.348,40.561,28.379,65.932,33.809
			c68.46,14.652,146.89-80.748,148.175-151.455C489.465,234.108,365.049,13.912,208.971,42.05z"/>
	</g>
</g>
<g id="Plants">
	<g>
		<path style="fill:#92E3A9;" d="M27.243,287.51c3.052,0.657,9.88-0.886,9.885-0.887c0.071-0.016-2.383-4.192-2.568-4.438
			c-2.143-2.843-7.954-7.078-11.721-5.771c-2.713,0.942-3.699,4.048-2.538,6.547C21.488,285.514,24.643,286.95,27.243,287.51z"/>
		<path style="fill:#92E3A9;" d="M96.925,274.974c0.068,0.026,0.325-4.811,0.306-5.118c-0.219-3.553-2.729-10.291-6.592-11.279
			c-2.783-0.711-5.318,1.335-5.728,4.06c-0.419,2.783,1.421,5.722,3.281,7.623C90.373,272.492,96.92,274.972,96.925,274.974z"/>
		<path style="fill:#92E3A9;" d="M112.365,245.974c-3.97,0.368-7.508,6.627-8.283,10.102c-0.066,0.301-0.574,5.117-0.502,5.102
			c0,0,0.067-0.014,0.083-0.018c-0.566,0.984-1.162,2.045-1.79,3.218c-1.141,2.175-2.412,4.642-3.613,7.421
			c-1.208,2.773-2.442,5.822-3.452,9.149c-1.017,3.334-1.916,6.893-2.369,10.68c-0.005,0.043-0.005,0.088-0.01,0.131
			c-0.212-1.148-0.911-4.341-0.992-4.58c-1.149-3.37-5.35-9.205-9.336-9.138c-2.872,0.049-4.777,2.693-4.453,5.429
			c0.331,2.795,2.882,5.143,5.177,6.486c2.588,1.514,9.057,2.179,9.572,2.23c-0.398,3.61-0.513,7.347-0.421,11.136
			c0.05,2.166,0.168,4.346,0.314,6.53c-0.215-0.987-0.414-1.868-0.456-1.989c-1.149-3.37-5.35-9.205-9.336-9.137
			c-2.872,0.049-4.777,2.692-4.453,5.429c0.331,2.795,2.882,5.143,5.177,6.486c2.329,1.362,7.833,2.04,9.291,2.199
			c0.065,0.837,0.12,1.674,0.188,2.511c0.325,4.017,0.667,8.023,0.882,11.964c0.077,1.389,0.101,2.759,0.13,4.13
			c-0.192-0.876-0.361-1.613-0.398-1.723c-1.149-3.37-5.35-9.205-9.337-9.137c-2.872,0.048-4.778,2.692-4.453,5.429
			c0.331,2.794,2.882,5.143,5.178,6.486c2.222,1.3,7.297,1.971,9.029,2.169c-0.013,1.405-0.022,2.812-0.098,4.172
			c-0.073,0.928-0.078,1.827-0.202,2.754c-0.104,0.922-0.207,1.834-0.309,2.737c-0.261,1.732-0.518,3.521-0.815,5.205
			c-0.197,1.173-0.407,2.286-0.615,3.408c-0.06-1.383-0.234-4.088-0.274-4.312c-0.416-2.329-2.002-5.93-4.176-8.248
			c-0.059-0.344-0.148-0.682-0.271-1.01c-0.968-2.58-3.875-4.053-6.449-2.778c-3.573,1.77-4.626,8.883-4.099,12.404
			c0.031,0.208,0.62,2.424,1.014,3.816c-0.356-0.783-0.693-1.547-1.07-2.348c-0.734-1.59-1.513-3.155-2.346-4.842
			c-0.431-0.8-0.866-1.609-1.305-2.425c-0.418-0.819-0.964-1.631-1.447-2.457c-1.161-1.891-2.428-3.75-3.747-5.595
			c1.391-0.646,6.296-3.012,8.051-5.026c1.746-2.005,3.414-5.045,2.836-7.799c-0.566-2.697-3.215-4.594-5.953-3.723
			c-3.799,1.208-5.918,8.079-5.931,11.64c-0.001,0.222,0.277,2.778,0.457,4.178c-0.802-1.103-1.596-2.208-2.442-3.297
			c-2.444-3.145-5.016-6.253-7.568-9.365c-0.783-0.953-1.55-1.911-2.323-2.868c0.497-0.224,6.389-2.911,8.354-5.166
			c1.746-2.005,3.414-5.045,2.836-7.799c-0.566-2.697-3.216-4.594-5.953-3.723c-3.799,1.209-5.918,8.08-5.931,11.64
			c-0.001,0.268,0.404,3.945,0.553,4.875c-1.7-2.108-3.375-4.224-4.942-6.377c-2.166-2.968-4.126-6-5.808-9.078
			c0.232-0.104,6.393-2.88,8.406-5.19c1.747-2.005,3.414-5.045,2.836-7.799c-0.566-2.697-3.216-4.594-5.953-3.724
			c-3.8,1.208-5.918,8.079-5.931,11.639c-0.001,0.234,0.305,3.037,0.481,4.366c-0.119,0.038-0.097,0.031-0.217,0.069
			c-1.763-3.32-3.052-6.757-4.101-10.033c-0.611-1.897-1.089-3.744-1.513-5.551c1.201-0.399,6.667-2.284,8.708-4.164
			c1.956-1.801,3.948-4.639,3.676-7.44c-0.267-2.743-2.692-4.92-5.508-4.355c-3.909,0.784-6.769,7.381-7.173,10.918
			c-0.022,0.192-0.029,2.172-0.014,3.615c-0.179-0.818-0.379-1.66-0.535-2.448c-0.593-2.956-0.954-5.699-1.254-8.132
			c-0.16-1.384-0.276-2.64-0.373-3.815c0.974-1.007,4.847-5.112,5.776-7.673c0.906-2.5,1.366-5.936-0.167-8.297
			c-1.501-2.311-4.656-3.126-6.895-1.327c-3.108,2.497-2.606,9.67-1.335,12.996c0.11,0.287,2.344,4.585,2.396,4.533
			c0,0,0.048-0.049,0.059-0.061c0.07,1.133,0.159,2.347,0.283,3.671c0.248,2.444,0.549,5.203,1.08,8.183
			c0.523,2.98,1.175,6.203,2.168,9.535c0.991,3.342,2.204,6.807,3.916,10.215c0.019,0.039,0.045,0.076,0.064,0.115
			c-0.81-0.841-3.154-3.118-3.354-3.272c-2.817-2.176-9.54-4.726-12.828-2.471c-2.369,1.625-2.5,4.881-0.719,6.985
			c1.818,2.148,5.241,2.699,7.896,2.553c2.994-0.165,8.756-3.179,9.214-3.421c1.66,3.231,3.625,6.411,5.792,9.521
			c1.236,1.779,2.537,3.533,3.864,5.274c-0.724-0.705-1.376-1.33-1.477-1.408c-2.818-2.177-9.541-4.726-12.828-2.471
			c-2.369,1.625-2.499,4.881-0.719,6.984c1.818,2.149,5.241,2.7,7.896,2.554c2.694-0.149,7.658-2.62,8.963-3.291
			c0.516,0.662,1.023,1.33,1.542,1.991c2.487,3.17,4.983,6.324,7.336,9.491c0.83,1.116,1.606,2.246,2.387,3.373
			c-0.644-0.625-1.191-1.147-1.283-1.218c-2.817-2.176-9.54-4.726-12.828-2.471c-2.369,1.625-2.5,4.881-0.719,6.985
			c1.818,2.148,5.241,2.699,7.896,2.553c2.571-0.142,7.173-2.381,8.728-3.172c0.764,1.178,1.533,2.357,2.22,3.534
			c0.452,0.814,0.943,1.566,1.351,2.409c0.422,0.826,0.839,1.643,1.252,2.453c0.738,1.589,1.51,3.223,2.192,4.791
			c0.483,1.087,0.922,2.131,1.368,3.182c-0.813-1.12-2.451-3.28-2.608-3.445c-2.455-2.578-8.714-6.117-12.306-4.385
			c-2.587,1.248-3.21,4.446-1.769,6.795c1.472,2.399,4.772,3.463,7.418,3.72c2.914,0.283,8.834-1.713,9.572-1.968
			c0.731,1.741,1.427,3.443,2.056,5.058c1.078,2.745,2.015,5.281,2.82,7.55l2.52-0.51c-0.893-2.366-1.939-5.029-3.15-7.926
			c-0.736-1.772-1.557-3.65-2.419-5.571c0.42-0.274,2.799-1.847,4.835-3.594c2.438,1.76,8.076,3.258,8.806,3.446
			c-0.351,1.856-0.709,3.658-1.075,5.354c-0.56,2.627-1.122,5.034-1.656,7.21l2.706-0.548c0.415-1.906,0.842-3.977,1.265-6.193
			c0.364-1.884,0.715-3.904,1.055-5.981c0.766,0.005,7.028,0.009,9.703-1.191c2.426-1.089,5.213-3.151,5.843-5.894
			c0.616-2.686-0.996-5.518-3.846-5.875c-3.956-0.495-8.758,4.857-10.262,8.084c-0.089,0.191-0.82,2.363-1.259,3.742
			c0.135-0.849,0.275-1.673,0.403-2.549c0.265-1.731,0.479-3.466,0.715-5.333c0.083-0.905,0.166-1.82,0.25-2.743
			c0.103-0.914,0.096-1.892,0.149-2.847c0.075-2.217,0.044-4.467-0.038-6.734c1.517,0.228,6.913,0.961,9.488,0.249
			c2.563-0.709,5.631-2.324,6.668-4.941c1.016-2.562-0.148-5.606-2.911-6.39c-3.836-1.088-9.393,3.475-11.368,6.437
			c-0.123,0.185-1.301,2.469-1.924,3.737c-0.06-1.362-0.112-2.722-0.218-4.098c-0.303-3.972-0.734-7.983-1.146-11.986
			c-0.127-1.227-0.238-2.449-0.355-3.674c0.538,0.087,6.934,1.097,9.818,0.299c2.563-0.708,5.631-2.324,6.668-4.941
			c1.015-2.562-0.148-5.605-2.911-6.389c-3.835-1.088-9.393,3.474-11.368,6.436c-0.149,0.223-1.839,3.513-2.228,4.371
			c-0.256-2.696-0.485-5.385-0.604-8.045c-0.169-3.671-0.132-7.281,0.163-10.776c0.251,0.041,6.921,1.125,9.874,0.309
			c2.563-0.709,5.631-2.324,6.668-4.941c1.016-2.562-0.148-5.606-2.911-6.39c-3.836-1.088-9.393,3.474-11.368,6.436
			c-0.13,0.194-1.42,2.699-2.006,3.905c-0.12-0.035-0.099-0.028-0.219-0.063c0.361-3.74,1.182-7.318,2.115-10.629
			c0.537-1.919,1.157-3.723,1.8-5.465c1.222,0.329,6.821,1.773,9.56,1.331c2.625-0.423,5.852-1.692,7.17-4.178
			c1.291-2.435,0.469-5.589-2.192-6.671c-3.693-1.503-9.718,2.422-12.006,5.149c-0.124,0.148-1.223,1.796-2.006,3.008
			c0.302-0.781,0.6-1.594,0.904-2.337c1.136-2.792,2.349-5.28,3.44-7.474c0.631-1.242,1.226-2.354,1.794-3.388
			c1.368-0.302,6.863-1.59,9.05-3.214c2.134-1.585,4.414-4.198,4.438-7.013C117.408,248.128,115.225,245.708,112.365,245.974z"/>
	</g>
	<g>
		<path style="fill:#92E3A9;" d="M474.023,287.51c-3.052,0.657-9.88-0.886-9.885-0.887c-0.071-0.016,2.383-4.192,2.568-4.438
			c2.143-2.843,7.954-7.078,11.721-5.771c2.713,0.942,3.7,4.048,2.538,6.547C479.778,285.514,476.622,286.95,474.023,287.51z"/>
		<path style="fill:#92E3A9;" d="M404.341,274.974c-0.068,0.026-0.325-4.811-0.306-5.118c0.219-3.553,2.729-10.291,6.592-11.279
			c2.783-0.711,5.318,1.335,5.728,4.06c0.419,2.783-1.421,5.722-3.281,7.623C410.892,272.492,404.346,274.972,404.341,274.974z"/>
		<path style="fill:#92E3A9;" d="M388.901,245.974c3.97,0.368,7.509,6.627,8.283,10.102c0.066,0.301,0.573,5.117,0.502,5.102
			c0,0-0.067-0.014-0.083-0.018c0.566,0.984,1.162,2.045,1.79,3.218c1.142,2.175,2.412,4.642,3.613,7.421
			c1.208,2.773,2.442,5.822,3.452,9.149c1.017,3.334,1.917,6.893,2.369,10.68c0.005,0.043,0.005,0.088,0.01,0.131
			c0.212-1.148,0.911-4.341,0.992-4.58c1.149-3.37,5.35-9.205,9.336-9.138c2.872,0.049,4.777,2.693,4.453,5.429
			c-0.331,2.795-2.882,5.143-5.177,6.486c-2.588,1.514-9.057,2.179-9.572,2.23c0.398,3.61,0.513,7.347,0.421,11.136
			c-0.05,2.166-0.168,4.346-0.314,6.53c0.215-0.987,0.414-1.868,0.456-1.989c1.149-3.37,5.35-9.205,9.336-9.137
			c2.872,0.049,4.777,2.692,4.453,5.429c-0.331,2.795-2.882,5.143-5.177,6.486c-2.329,1.362-7.832,2.04-9.291,2.199
			c-0.065,0.837-0.12,1.674-0.188,2.511c-0.325,4.017-0.667,8.023-0.882,11.964c-0.077,1.389-0.101,2.759-0.13,4.13
			c0.192-0.876,0.361-1.613,0.398-1.723c1.149-3.37,5.35-9.205,9.337-9.137c2.872,0.048,4.778,2.692,4.453,5.429
			c-0.331,2.794-2.882,5.143-5.178,6.486c-2.222,1.3-7.297,1.971-9.029,2.169c0.013,1.405,0.022,2.812,0.098,4.172
			c0.073,0.928,0.078,1.827,0.202,2.754c0.104,0.922,0.207,1.834,0.309,2.737c0.26,1.732,0.518,3.521,0.815,5.205
			c0.197,1.173,0.407,2.286,0.615,3.408c0.06-1.383,0.234-4.088,0.275-4.312c0.415-2.329,2.002-5.93,4.176-8.248
			c0.059-0.344,0.148-0.682,0.271-1.01c0.969-2.58,3.875-4.053,6.449-2.778c3.573,1.77,4.626,8.883,4.099,12.404
			c-0.031,0.208-0.62,2.424-1.014,3.816c0.356-0.783,0.693-1.547,1.07-2.348c0.734-1.59,1.513-3.155,2.346-4.842
			c0.431-0.8,0.866-1.609,1.305-2.425c0.418-0.819,0.964-1.631,1.447-2.457c1.161-1.891,2.428-3.75,3.747-5.595
			c-1.391-0.646-6.296-3.012-8.051-5.026c-1.746-2.005-3.414-5.045-2.836-7.799c0.566-2.697,3.215-4.594,5.953-3.723
			c3.799,1.208,5.918,8.079,5.931,11.64c0.001,0.222-0.277,2.778-0.457,4.178c0.802-1.103,1.596-2.208,2.443-3.297
			c2.444-3.145,5.016-6.253,7.568-9.365c0.783-0.953,1.55-1.911,2.323-2.868c-0.497-0.224-6.389-2.911-8.354-5.166
			c-1.746-2.005-3.414-5.045-2.836-7.799c0.566-2.697,3.216-4.594,5.953-3.723c3.799,1.209,5.918,8.08,5.931,11.64
			c0.001,0.268-0.404,3.945-0.553,4.875c1.7-2.108,3.375-4.224,4.942-6.377c2.165-2.968,4.126-6,5.808-9.078
			c-0.232-0.104-6.393-2.88-8.406-5.19c-1.747-2.005-3.414-5.045-2.836-7.799c0.566-2.697,3.216-4.594,5.953-3.724
			c3.8,1.208,5.918,8.079,5.931,11.639c0.001,0.234-0.305,3.037-0.482,4.366c0.119,0.038,0.097,0.031,0.217,0.069
			c1.763-3.32,3.052-6.757,4.1-10.033c0.611-1.897,1.089-3.744,1.513-5.551c-1.201-0.399-6.667-2.284-8.708-4.164
			c-1.956-1.801-3.948-4.639-3.676-7.44c0.267-2.743,2.692-4.92,5.508-4.355c3.909,0.784,6.769,7.381,7.173,10.918
			c0.022,0.192,0.029,2.172,0.014,3.615c0.179-0.818,0.379-1.66,0.535-2.448c0.593-2.956,0.954-5.699,1.254-8.132
			c0.159-1.384,0.276-2.64,0.373-3.815c-0.974-1.007-4.847-5.112-5.776-7.673c-0.906-2.5-1.366-5.936,0.167-8.297
			c1.501-2.311,4.656-3.126,6.895-1.327c3.108,2.497,2.606,9.67,1.335,12.996c-0.11,0.287-2.344,4.585-2.396,4.533
			c0,0-0.048-0.049-0.059-0.061c-0.07,1.133-0.159,2.347-0.283,3.671c-0.247,2.444-0.549,5.203-1.08,8.183
			c-0.523,2.98-1.175,6.203-2.168,9.535c-0.991,3.342-2.204,6.807-3.916,10.215c-0.019,0.039-0.045,0.076-0.064,0.115
			c0.81-0.841,3.154-3.118,3.354-3.272c2.817-2.176,9.54-4.726,12.828-2.471c2.369,1.625,2.5,4.881,0.719,6.985
			c-1.818,2.148-5.241,2.699-7.896,2.553c-2.994-0.165-8.756-3.179-9.214-3.421c-1.66,3.231-3.625,6.411-5.792,9.521
			c-1.236,1.779-2.537,3.533-3.864,5.274c0.724-0.705,1.376-1.33,1.477-1.408c2.818-2.177,9.541-4.726,12.828-2.471
			c2.369,1.625,2.499,4.881,0.719,6.984c-1.818,2.149-5.241,2.7-7.896,2.554c-2.694-0.149-7.658-2.62-8.963-3.291
			c-0.516,0.662-1.023,1.33-1.542,1.991c-2.487,3.17-4.983,6.324-7.336,9.491c-0.83,1.116-1.606,2.246-2.387,3.373
			c0.644-0.625,1.191-1.147,1.283-1.218c2.817-2.176,9.54-4.726,12.828-2.471c2.369,1.625,2.5,4.881,0.719,6.985
			c-1.818,2.148-5.241,2.699-7.896,2.553c-2.571-0.142-7.173-2.381-8.728-3.172c-0.764,1.178-1.533,2.357-2.22,3.534
			c-0.452,0.814-0.943,1.566-1.351,2.409c-0.422,0.826-0.839,1.643-1.252,2.453c-0.738,1.589-1.51,3.223-2.192,4.791
			c-0.483,1.087-0.922,2.131-1.368,3.182c0.813-1.12,2.451-3.28,2.608-3.445c2.455-2.578,8.714-6.117,12.306-4.385
			c2.587,1.248,3.21,4.446,1.769,6.795c-1.472,2.399-4.772,3.463-7.418,3.72c-2.914,0.283-8.834-1.713-9.572-1.968
			c-0.731,1.741-1.427,3.443-2.056,5.058c-1.078,2.745-2.015,5.281-2.82,7.55l-2.52-0.51c0.893-2.366,1.939-5.029,3.15-7.926
			c0.736-1.772,1.557-3.65,2.419-5.571c-0.42-0.274-2.799-1.847-4.835-3.594c-2.439,1.76-8.076,3.258-8.806,3.446
			c0.351,1.856,0.709,3.658,1.075,5.354c0.56,2.627,1.122,5.034,1.656,7.21l-2.706-0.548c-0.415-1.906-0.842-3.977-1.265-6.193
			c-0.364-1.884-0.715-3.904-1.056-5.981c-0.766,0.005-7.028,0.009-9.703-1.191c-2.426-1.089-5.213-3.151-5.843-5.894
			c-0.616-2.686,0.996-5.518,3.846-5.875c3.956-0.495,8.759,4.857,10.262,8.084c0.089,0.191,0.82,2.363,1.259,3.742
			c-0.135-0.849-0.275-1.673-0.403-2.549c-0.265-1.731-0.478-3.466-0.715-5.333c-0.083-0.905-0.166-1.82-0.25-2.743
			c-0.103-0.914-0.096-1.892-0.149-2.847c-0.075-2.217-0.044-4.467,0.038-6.734c-1.517,0.228-6.913,0.961-9.488,0.249
			c-2.563-0.709-5.631-2.324-6.668-4.941c-1.016-2.562,0.148-5.606,2.911-6.39c3.836-1.088,9.393,3.475,11.368,6.437
			c0.123,0.185,1.301,2.469,1.924,3.737c0.06-1.362,0.112-2.722,0.218-4.098c0.303-3.972,0.734-7.983,1.146-11.986
			c0.127-1.227,0.238-2.449,0.355-3.674c-0.538,0.087-6.934,1.097-9.818,0.299c-2.563-0.708-5.631-2.324-6.668-4.941
			c-1.015-2.562,0.148-5.605,2.911-6.389c3.835-1.088,9.393,3.474,11.368,6.436c0.149,0.223,1.839,3.513,2.228,4.371
			c0.256-2.696,0.485-5.385,0.604-8.045c0.169-3.671,0.132-7.281-0.163-10.776c-0.251,0.041-6.921,1.125-9.874,0.309
			c-2.563-0.709-5.631-2.324-6.668-4.941c-1.016-2.562,0.148-5.606,2.911-6.39c3.836-1.088,9.393,3.474,11.368,6.436
			c0.13,0.194,1.42,2.699,2.006,3.905c0.12-0.035,0.099-0.028,0.219-0.063c-0.361-3.74-1.181-7.318-2.115-10.629
			c-0.537-1.919-1.157-3.723-1.801-5.465c-1.222,0.329-6.821,1.773-9.56,1.331c-2.625-0.423-5.852-1.692-7.17-4.178
			c-1.291-2.435-0.469-5.589,2.192-6.671c3.693-1.503,9.718,2.422,12.006,5.149c0.124,0.148,1.223,1.796,2.006,3.008
			c-0.303-0.781-0.6-1.594-0.904-2.337c-1.137-2.792-2.349-5.28-3.44-7.474c-0.631-1.242-1.226-2.354-1.794-3.388
			c-1.368-0.302-6.863-1.59-9.05-3.214c-2.134-1.585-4.414-4.198-4.438-7.013C383.858,248.128,386.041,245.708,388.901,245.974z"/>
	</g>
</g>
<g id="Circles">
	<g>
		
			<ellipse transform="matrix(0.9726 -0.2327 0.2327 0.9726 -31.2385 101.8121)" style="fill:none;stroke:#263238;stroke-miterlimit:10;" cx="415.913" cy="183.311" rx="29.552" ry="29.552"/>
		
			<ellipse transform="matrix(0.9751 -0.2218 0.2218 0.9751 -24.0563 96.1175)" style="fill:none;stroke:#263238;stroke-miterlimit:10;" cx="415.913" cy="155.164" rx="27.37" ry="27.37"/>
		
			<ellipse transform="matrix(0.9751 -0.2218 0.2218 0.9751 -36.303 97.4928)" style="fill:none;stroke:#263238;stroke-miterlimit:10;" cx="415.913" cy="210.377" rx="27.37" ry="27.37"/>
		
			<ellipse transform="matrix(0.9873 -0.1586 0.1586 0.9873 -26.5823 64.1536)" style="fill:none;stroke:#263238;stroke-miterlimit:10;" cx="388.604" cy="198.604" rx="31.678" ry="31.678"/>
		
			<ellipse transform="matrix(0.974 -0.2267 0.2267 0.974 -33.4675 105.7608)" style="fill:none;stroke:#263238;stroke-miterlimit:10;" cx="443.768" cy="198.604" rx="31.678" ry="31.678"/>
		
			<ellipse transform="matrix(0.9633 -0.2684 0.2684 0.9633 -28.6286 125.569)" style="fill:none;stroke:#263238;stroke-miterlimit:10;" cx="444.86" cy="167.472" rx="31.678" ry="31.678"/>
		
			<ellipse transform="matrix(0.9725 -0.2329 0.2329 0.9725 -28.3485 94.8602)" style="fill:none;stroke:#263238;stroke-miterlimit:10;" cx="387.512" cy="167.472" rx="31.678" ry="31.678"/>
		<circle style="fill:#263238;stroke:#263238;stroke-miterlimit:10;" cx="391.241" cy="166.891" r="3.581"/>
		<path style="fill:#263238;stroke:#263238;stroke-miterlimit:10;" d="M419.593,153.759c0-1.978-1.603-3.581-3.581-3.581
			c-1.978,0-3.581,1.603-3.581,3.581c0,1.978,1.603,3.581,3.581,3.581C417.99,157.34,419.593,155.737,419.593,153.759z"/>
		<circle style="fill:#263238;stroke:#263238;stroke-miterlimit:10;" cx="391.241" cy="198.825" r="3.581"/>
		<circle style="fill:#263238;stroke:#263238;stroke-miterlimit:10;" cx="439.888" cy="166.891" r="3.581"/>
		<circle style="fill:#263238;stroke:#263238;stroke-miterlimit:10;" cx="439.888" cy="198.825" r="3.581"/>
		<path style="fill:#263238;stroke:#263238;stroke-miterlimit:10;" d="M419.593,183.311c0-1.978-1.603-3.581-3.581-3.581
			c-1.978,0-3.581,1.604-3.581,3.581c0,1.978,1.603,3.581,3.581,3.581C417.99,186.892,419.593,185.289,419.593,183.311z"/>
		<path style="fill:#263238;stroke:#263238;stroke-miterlimit:10;" d="M419.593,213.15c0-1.978-1.603-3.581-3.581-3.581
			c-1.978,0-3.581,1.603-3.581,3.581c0,1.978,1.603,3.581,3.581,3.581C417.99,216.732,419.593,215.128,419.593,213.15z"/>
	</g>
	<g>
		
			<ellipse transform="matrix(0.9871 -0.1602 0.1602 0.9871 -46.3743 44.2982)" style="fill:none;stroke:#263238;stroke-miterlimit:10;" cx="251.465" cy="309.673" rx="85.535" ry="85.535"/>
		
			<ellipse transform="matrix(0.7071 -0.7071 0.7071 0.7071 -145.3195 268.5135)" style="fill:none;stroke:#263238;stroke-miterlimit:10;" cx="251.465" cy="309.673" rx="45.673" ry="45.673"/>
		<path style="fill:none;stroke:#263238;stroke-miterlimit:10;" d="M151.929,242.263c-13.045,19.224-20.666,42.427-20.666,67.41
			c0,66.386,53.816,120.202,120.202,120.202s120.202-53.816,120.202-120.202c0-55.055-37.013-101.465-87.513-115.704"/>
	</g>
	<g>
		
			<ellipse transform="matrix(0.7071 -0.7071 0.7071 0.7071 -46.1652 111.6748)" style="fill:none;stroke:#263238;stroke-miterlimit:10;" cx="111.721" cy="111.564" rx="84.564" ry="84.564"/>
		<circle style="fill:none;stroke:#263238;stroke-miterlimit:10;" cx="111.721" cy="136.352" r="59.776"/>
		
			<ellipse transform="matrix(0.7071 -0.7071 0.7071 0.7071 -81.2205 126.1952)" style="fill:none;stroke:#263238;stroke-miterlimit:10;" cx="111.721" cy="161.139" rx="34.988" ry="34.988"/>
		<circle style="fill:none;stroke:#263238;stroke-miterlimit:10;" cx="111.721" cy="101.524" r="23.962"/>
		
			<ellipse transform="matrix(0.971 -0.2389 0.2389 0.971 -9.1757 28.1948)" style="fill:none;stroke:#263238;stroke-miterlimit:10;" cx="111.721" cy="51.949" rx="23.962" ry="23.962"/>
		<circle style="fill:none;stroke:#263238;stroke-miterlimit:10;" cx="53.056" cy="84.769" r="18.729"/>
		<circle style="fill:none;stroke:#263238;stroke-miterlimit:10;" cx="170.936" cy="84.769" r="18.729"/>
	</g>
	<g>
		<g>
			<circle style="fill:#FFFFFF;stroke:#263238;stroke-miterlimit:10;" cx="83.65" cy="373.344" r="20.344"/>
			<circle style="fill:#FFFFFF;stroke:#263238;stroke-miterlimit:10;" cx="83.65" cy="373.344" r="17.194"/>
			<circle style="fill:#FFFFFF;stroke:#263238;stroke-miterlimit:10;" cx="83.65" cy="373.344" r="14.044"/>
			<circle style="fill:#FFFFFF;stroke:#263238;stroke-miterlimit:10;" cx="83.65" cy="373.344" r="10.894"/>
			<circle style="fill:#FFFFFF;stroke:#263238;stroke-miterlimit:10;" cx="83.65" cy="373.344" r="7.744"/>
			<circle style="fill:#FFFFFF;stroke:#263238;stroke-miterlimit:10;" cx="83.65" cy="373.344" r="4.594"/>
		</g>
		<g>
			<circle style="fill:#FFFFFF;stroke:#263238;stroke-miterlimit:10;" cx="44.008" cy="396.232" r="20.344"/>
			
				<ellipse transform="matrix(0.9813 -0.1927 0.1927 0.9813 -75.5409 15.9104)" style="fill:#FFFFFF;stroke:#263238;stroke-miterlimit:10;" cx="44.008" cy="396.232" rx="17.194" ry="17.194"/>
			<path style="fill:#FFFFFF;stroke:#263238;stroke-miterlimit:10;" d="M51.03,384.069c-6.717-3.878-15.307-1.577-19.185,5.141
				c-3.878,6.717-1.577,15.306,5.141,19.185c6.717,3.878,15.306,1.577,19.185-5.141S57.747,387.948,51.03,384.069z"/>
			
				<ellipse transform="matrix(0.5728 -0.8197 0.8197 0.5728 -305.992 205.3485)" style="fill:#FFFFFF;stroke:#263238;stroke-miterlimit:10;" cx="44.008" cy="396.232" rx="10.894" ry="10.894"/>
			<path style="fill:#FFFFFF;stroke:#263238;stroke-miterlimit:10;" d="M47.88,389.525c-3.704-2.138-8.44-0.869-10.579,2.835
				c-2.139,3.704-0.869,8.44,2.835,10.578c3.704,2.138,8.44,0.869,10.578-2.834C52.853,396.4,51.584,391.664,47.88,389.525z"/>
			<path style="fill:#FFFFFF;stroke:#263238;stroke-miterlimit:10;" d="M46.305,392.254c-2.197-1.269-5.007-0.516-6.275,1.681
				c-1.268,2.197-0.516,5.007,1.681,6.275c2.197,1.269,5.007,0.516,6.275-1.681C49.255,396.332,48.502,393.522,46.305,392.254z"/>
		</g>
		<g>
			
				<ellipse transform="matrix(0.8117 -0.5841 0.5841 0.8117 -249.8917 108.9457)" style="fill:#FFFFFF;stroke:#263238;stroke-miterlimit:10;" cx="44.008" cy="442.007" rx="20.344" ry="20.344"/>
			
				<ellipse transform="matrix(0.9889 -0.1488 0.1488 0.9889 -65.2866 11.4706)" style="fill:#FFFFFF;stroke:#263238;stroke-miterlimit:10;" cx="44.008" cy="442.007" rx="17.194" ry="17.194"/>
			
				<ellipse transform="matrix(0.7071 -0.7071 0.7071 0.7071 -299.6564 160.5791)" style="fill:#FFFFFF;stroke:#263238;stroke-miterlimit:10;" cx="44.008" cy="442.007" rx="14.044" ry="14.044"/>
			<circle style="fill:#FFFFFF;stroke:#263238;stroke-miterlimit:10;" cx="44.008" cy="442.007" r="10.894"/>
			<path style="fill:#FFFFFF;stroke:#263238;stroke-miterlimit:10;" d="M40.136,435.3c-3.704,2.139-4.973,6.875-2.835,10.579
				c2.138,3.704,6.875,4.973,10.579,2.834c3.704-2.138,4.973-6.875,2.834-10.578C48.576,434.431,43.84,433.162,40.136,435.3z"/>
			<path style="fill:#FFFFFF;stroke:#263238;stroke-miterlimit:10;" d="M41.711,438.028c-2.197,1.269-2.95,4.078-1.681,6.275
				c1.269,2.197,4.078,2.95,6.275,1.681c2.197-1.269,2.95-4.078,1.681-6.275S43.908,436.76,41.711,438.028z"/>
		</g>
		<g>
			<circle style="fill:#FFFFFF;stroke:#263238;stroke-miterlimit:10;" cx="83.65" cy="464.894" r="20.344"/>
			<circle style="fill:#FFFFFF;stroke:#263238;stroke-miterlimit:10;" cx="83.65" cy="464.894" r="17.194"/>
			<circle style="fill:#FFFFFF;stroke:#263238;stroke-miterlimit:10;" cx="83.65" cy="464.894" r="14.044"/>
			<circle style="fill:#FFFFFF;stroke:#263238;stroke-miterlimit:10;" cx="83.65" cy="464.894" r="10.894"/>
			<circle style="fill:#FFFFFF;stroke:#263238;stroke-miterlimit:10;" cx="83.65" cy="464.894" r="7.744"/>
			<circle style="fill:#FFFFFF;stroke:#263238;stroke-miterlimit:10;" cx="83.65" cy="464.894" r="4.594"/>
		</g>
		<g>
			
				<ellipse transform="matrix(0.3052 -0.9523 0.9523 0.3052 -335.2542 424.5131)" style="fill:#FFFFFF;stroke:#263238;stroke-miterlimit:10;" cx="123.292" cy="442.007" rx="20.344" ry="20.344"/>
			<path style="fill:#FFFFFF;stroke:#263238;stroke-miterlimit:10;" d="M114.695,456.898c8.224,4.748,18.74,1.93,23.488-6.294
				c4.748-8.224,1.93-18.74-6.294-23.488c-8.224-4.748-18.74-1.93-23.488,6.294S106.471,452.15,114.695,456.898z"/>
			
				<ellipse transform="matrix(0.648 -0.7617 0.7617 0.648 -293.2563 249.5018)" style="fill:#FFFFFF;stroke:#263238;stroke-miterlimit:10;" cx="123.293" cy="442.007" rx="14.044" ry="14.044"/>
			
				<ellipse transform="matrix(0.169 -0.9856 0.9856 0.169 -333.193 488.8268)" style="fill:#FFFFFF;stroke:#263238;stroke-miterlimit:10;" cx="123.293" cy="442.007" rx="10.894" ry="10.894"/>
			<path style="fill:#FFFFFF;stroke:#263238;stroke-miterlimit:10;" d="M119.42,448.713c3.704,2.139,8.44,0.869,10.578-2.834
				c2.139-3.704,0.869-8.44-2.834-10.579c-3.704-2.138-8.44-0.869-10.578,2.835C114.448,441.839,115.717,446.575,119.42,448.713z"/>
			<path style="fill:#FFFFFF;stroke:#263238;stroke-miterlimit:10;" d="M120.996,445.985c2.197,1.269,5.007,0.516,6.275-1.681
				c1.269-2.197,0.516-5.007-1.681-6.275c-2.197-1.269-5.007-0.516-6.275,1.681C118.045,441.907,118.798,444.717,120.996,445.985z"
				/>
		</g>
		<g>
			<circle style="fill:#FFFFFF;stroke:#263238;stroke-miterlimit:10;" cx="123.292" cy="396.232" r="20.344"/>
			<circle style="fill:#FFFFFF;stroke:#263238;stroke-miterlimit:10;" cx="123.292" cy="396.232" r="17.194"/>
			<path style="fill:#FFFFFF;stroke:#263238;stroke-miterlimit:10;" d="M130.315,408.395c6.717-3.878,9.019-12.467,5.141-19.185
				c-3.878-6.717-12.468-9.019-19.185-5.141c-6.717,3.878-9.019,12.468-5.14,19.185
				C115.008,409.971,123.597,412.273,130.315,408.395z"/>
			<path style="fill:#FFFFFF;stroke:#263238;stroke-miterlimit:10;" d="M128.74,405.667c5.211-3.008,6.996-9.671,3.988-14.882
				c-3.008-5.21-9.671-6.996-14.882-3.987c-5.211,3.008-6.996,9.671-3.988,14.882C116.866,406.889,123.529,408.675,128.74,405.667z"
				/>
			<path style="fill:#FFFFFF;stroke:#263238;stroke-miterlimit:10;" d="M127.164,402.938c3.704-2.138,4.973-6.875,2.834-10.578
				c-2.138-3.704-6.875-4.973-10.578-2.835c-3.704,2.138-4.973,6.875-2.834,10.579C118.724,403.808,123.461,405.077,127.164,402.938
				z"/>
			<path style="fill:#FFFFFF;stroke:#263238;stroke-miterlimit:10;" d="M125.59,400.21c2.197-1.268,2.95-4.078,1.681-6.275
				c-1.269-2.197-4.078-2.95-6.275-1.681c-2.197,1.268-2.95,4.078-1.682,6.275C120.583,400.726,123.392,401.479,125.59,400.21z"/>
		</g>
		<g>
			<circle style="fill:#263238;stroke:#263238;stroke-miterlimit:10;" cx="83.65" cy="419.119" r="39.417"/>
			<circle style="fill:#FFFFFF;stroke:#263238;stroke-miterlimit:10;" cx="83.65" cy="419.119" r="33.314"/>
			
				<ellipse transform="matrix(0.9739 -0.2271 0.2271 0.9739 -92.9789 29.94)" style="fill:#263238;stroke:#263238;stroke-miterlimit:10;" cx="83.65" cy="419.119" rx="27.211" ry="27.211"/>
			
				<ellipse transform="matrix(0.9738 -0.2272 0.2272 0.9738 -93.0375 29.9667)" style="fill:#FFFFFF;stroke:#263238;stroke-miterlimit:10;" cx="83.65" cy="419.119" rx="21.107" ry="21.107"/>
			<circle style="fill:#263238;stroke:#263238;stroke-miterlimit:10;" cx="83.65" cy="419.119" r="15.004"/>
			<circle style="fill:#FFFFFF;stroke:#263238;stroke-miterlimit:10;" cx="83.65" cy="419.119" r="8.901"/>
		</g>
	</g>
	<g>
		<g>
			<path style="fill:#263238;" d="M418.79,482c-33.084,0-60-26.916-60-60s26.916-60,60-60s60,26.916,60,60S451.874,482,418.79,482z
				 M418.79,376.579c-25.045,0-45.421,20.375-45.421,45.421s20.375,45.421,45.421,45.421c25.045,0,45.421-20.375,45.421-45.421
				S443.835,376.579,418.79,376.579z"/>
		</g>
		<g>
			<path style="fill:#263238;" d="M418.79,461.813c-21.953,0-39.813-17.86-39.813-39.813s17.86-39.813,39.813-39.813
				s39.813,17.86,39.813,39.813S440.744,461.813,418.79,461.813z M418.79,396.766c-13.914,0-25.234,11.32-25.234,25.234
				s11.32,25.234,25.234,25.234c13.914,0,25.234-11.32,25.234-25.234S432.704,396.766,418.79,396.766z"/>
		</g>
		<g>
			<path style="fill:#263238;" d="M418.79,441.653c-10.837,0-19.653-8.816-19.653-19.653s8.816-19.653,19.653-19.653
				c10.837,0,19.653,8.816,19.653,19.653S429.627,441.653,418.79,441.653z M418.79,416.157c-3.222,0-5.843,2.621-5.843,5.843
				s2.62,5.843,5.843,5.843s5.843-2.621,5.843-5.843S422.012,416.157,418.79,416.157z"/>
		</g>
	</g>
</g>
<g id="Hand">
	<g>
		<g>
			<path style="fill:#D1D1D1;stroke:#263238;stroke-miterlimit:10;" d="M261.415,134.33c0,0,4.372-2.982,5.271-6.762
				c0.899-3.78-9.616-4.848-11.456-5.45c-1.84-0.603-4.277,1.655-4.774,4.208c-0.497,2.553-1.2,4.7-0.381,5.308
				C250.895,132.242,258.661,134.447,261.415,134.33z"/>
			<path style="fill:#D1D1D1;stroke:#263238;stroke-miterlimit:10;" d="M245.63,140.024c0,0,12.788,6.566,17.155,2.564
				c4.367-4.002,0.063-7.449-2.908-9.78c-2.971-2.331-7.882-4.959-7.882-4.959L245.63,140.024z"/>
			<g>
				<g>
					<polygon style="fill:#263238;" points="250.592,303.803 251.465,309.673 251.916,303.629 					"/>
					<path style="fill:#263238;stroke:#263238;stroke-miterlimit:10;" d="M253.814,244.467c1.192,12.268,1.231,24.621,0.117,36.897
						l-2.058,22.676c-0.303,0.61-1.215,0.441-1.281-0.236l-11.64-119.805l8.904-0.865L253.814,244.467z"/>
				</g>
				<polygon style="fill:#263238;stroke:#263238;stroke-miterlimit:10;" points="163.749,242.285 169.725,248.452 235.65,182.529 
					229.674,176.362 				"/>
				<g>
					
						<rect x="160.264" y="219.593" transform="matrix(0.6986 0.7155 -0.7155 0.6986 207.6193 -49.7418)" style="fill:#92E3A9;stroke:#263238;stroke-miterlimit:10;" width="5.179" height="3.961"/>
					
						<rect x="158.532" y="215.215" transform="matrix(0.6986 0.7155 -0.7155 0.6986 205.1973 -48.7893)" style="fill:#92E3A9;stroke:#263238;stroke-miterlimit:10;" width="3.961" height="7.922"/>
					<g>
						<polygon style="fill:#92E3A9;stroke:#263238;stroke-miterlimit:10;" points="165.324,240.24 145.781,252.934 158.938,233.7 
							196.433,197.09 202.819,203.63 						"/>
						<polygon style="fill:#FFFFFF;stroke:#263238;stroke-miterlimit:10;" points="165.324,240.24 158.938,233.7 145.781,252.934 
													"/>
						<polygon style="fill:#263238;stroke:#263238;stroke-miterlimit:10;" points="151.774,249.041 149.816,247.036 
							145.781,252.934 						"/>
					</g>
					<path style="fill:#FFFFFF;stroke:#263238;stroke-miterlimit:10;" d="M168.932,221.388c-1.798-1.219-4.205-1.005-5.759,0.513
						c-1.554,1.518-1.826,3.919-0.65,5.745l8.08,12.549l10.682-10.43L168.932,221.388z M171.503,235.666l-6.251-8.495
						c-0.91-1.236-1.016-2.658-0.255-3.402c0.761-0.743,2.18-0.603,3.394,0.336l8.344,6.452L171.503,235.666z"/>
				</g>
				<g>
					<path style="fill:#92E3A9;stroke:#263238;stroke-miterlimit:10;" d="M247.994,169.432l-9.853-3.228l10.037-23.091
						c0.586-1.347,2.1-2.028,3.496-1.57h0c1.396,0.457,2.215,1.902,1.89,3.335L247.994,169.432z"/>
					<path style="fill:#92E3A9;stroke:#263238;stroke-miterlimit:10;" d="M234.296,162.399l2.963,0.016
						c4.67,0.026,9.202,1.591,12.892,4.453l2.43,1.884l-3.013,9.197c-1.212,3.699-2.993,7.187-5.278,10.338l-2.519,3.473
						l-1.094,3.995l-0.653-0.001c-3.696-0.003-7.294-1.19-10.267-3.386l-1.321-0.976l1.399-4.27l0.219-5.032
						c0.114-2.614,0.501-5.209,1.156-7.742L234.296,162.399z"/>
					<path style="fill:#263238;stroke:#263238;stroke-miterlimit:10;" d="M240.414,171.488c-0.461,1.408-1.977,2.176-3.386,1.715
						c-1.409-0.461-2.176-1.977-1.715-3.386c0.461-1.408,1.977-2.176,3.386-1.715C240.108,168.563,240.876,170.079,240.414,171.488z
						"/>
					<path style="fill:#263238;stroke:#263238;stroke-miterlimit:10;" d="M248.235,174.049c-0.461,1.408-1.977,2.176-3.386,1.715
						c-1.408-0.461-2.176-1.977-1.715-3.386c0.461-1.409,1.977-2.176,3.386-1.715C247.929,171.125,248.697,172.641,248.235,174.049z
						"/>
				</g>
				<path style="fill:#D1D1D1;stroke:#263238;stroke-miterlimit:10;" d="M405.214,42.571c0,0-16.467,11.921-29.927,13.624
					c-13.46,1.702-59.569,3.574-77.3,7.951c-17.731,4.377-50.618,17.71-62.513,26.037c-11.895,8.326-11.054,13.015-10.081,23.52
					c0.973,10.504,8.173,21.69,8.173,21.69s-6.444,16.563-4.287,19.307s9.595,0.766,14.258-5.176
					c4.663-5.942,12.418-25.471,21.141-35.515c8.723-10.044,20.242-12.043,25.238-12.783c4.996-0.74,13.893,3.193,14.141,11.762
					c0.249,8.57-4.002,15.326-10.309,19.032s-34.431,10.79-40.008,17.451c-5.577,6.661,5.065,12.524,12.815,11.667
					c7.75-0.857,13.951-5.276,25.354-10.029c11.403-4.753,25.772-8.194,37.603-9.072c11.831-0.878,38.555-2.649,50.634-14.649
					c12.08-12,22.515-26.237,32.385-31.492c9.87-5.255,22.394-10.32,22.394-10.32L405.214,42.571z"/>
				<path style="fill:#263238;" d="M412.531,95.896c0.294-0.157,0.591-0.313,0.889-0.469l-22.754-35.982l-1.667,3.334l12.38,41.986
					C405.208,100.97,408.908,97.825,412.531,95.896z"/>
				<path style="fill:none;stroke:#263238;stroke-miterlimit:10;" d="M264.18,77.177c0,0-27.744,21.469-30.868,28.933
					c-3.124,7.465,0.254,29.282,0.254,29.282s13.01-29.351,19.295-37.138c6.286-7.787,23.869-21.04,23.869-21.04"/>
			</g>
		</g>
		<g>
			<polygon style="fill:#FFFFFF;stroke:#263238;stroke-miterlimit:10;" points="384.421,53.037 414.973,113.265 440.814,99.729 
				414.983,37.623 			"/>
			<path style="fill:#FFFFFF;stroke:#263238;stroke-miterlimit:10;" d="M422.392,100.366c-0.522,1.593-2.236,2.461-3.829,1.939
				c-1.593-0.522-2.461-2.236-1.939-3.829c0.522-1.593,2.236-2.461,3.829-1.939C422.045,97.059,422.914,98.773,422.392,100.366z"/>
		</g>
		<path style="fill:#FFFFFF;stroke:#263238;stroke-miterlimit:10;" d="M495.949,81.768c0,0-41.549,21.053-44.699,23.416
			c-3.151,2.363-7.539,2.284-10.303,0.36S406.72,37.972,406.72,37.972s-1.042-4.076-0.037-7.142
			c1.004-3.066,41.383-27.866,41.383-27.866"/>
	</g>
</g>
</svg>
